<svg xmlns="http://www.w3.org/2000/svg" width="90" height="90" viewBox="0 0 90 90"><defs><style>.a{fill:#f86c6a;}.b{fill:#fff;}</style></defs><g transform="translate(-1035 -148)"><circle className="a" cx="45" cy="45" r="45" transform="translate(1035 148)"/><path className="b" d="M35.059,12.539c-.524,2-1.747,2.446-2.4,2.534a13.215,13.215,0,0,1-2.17,3.272,4.321,4.321,0,0,1-1.365.827,6.018,6.018,0,0,1-4.426,0,4.317,4.317,0,0,1-1.365-.827,13.209,13.209,0,0,1-2.17-3.272c-.653-.089-1.876-.53-2.4-2.534a3.189,3.189,0,0,1,.213-2.6,2.027,2.027,0,0,1,.623-.617c0-.214.01-.482.034-.787a3.684,3.684,0,0,1-.256-3.5,3.121,3.121,0,0,1,2.936-2.271A5.091,5.091,0,0,1,23.888,1.04,6.067,6.067,0,0,1,27.373,0a7.863,7.863,0,0,1,4.654,1.628c2.343,1.726,2.142,5.556,2.085,6.251a10.377,10.377,0,0,1,.11,1.446,2.027,2.027,0,0,1,.623.617A3.189,3.189,0,0,1,35.059,12.539Zm6.852,14.924V32.9a.77.77,0,0,1-.77.77H12.681a.77.77,0,0,1-.77-.77V27.463a5.389,5.389,0,0,1,3.4-5.028l6.734-2.693a.77.77,0,0,1,1.01.453l1.693,4.68.335-.964-.533-1.3a.77.77,0,0,1,.713-1.062h3.289a.77.77,0,0,1,.713,1.062l-.533,1.3.335.964,1.693-4.68a.77.77,0,0,1,1.01-.453l6.734,2.693A5.389,5.389,0,0,1,41.911,27.463Zm-4.1.591a.77.77,0,0,0-.77-.77H31.87a.77.77,0,0,0-.77.77v2.4a.77.77,0,0,0,.77.77h5.171a.77.77,0,0,0,.77-.77Z" transform="translate(1053.089 176)"/></g></svg>