<svg xmlns="http://www.w3.org/2000/svg" width="90" height="90" viewBox="0 0 90 90"><defs><style>.a{fill:#63c2de;}.b{fill:#fff;}</style></defs><g transform="translate(-331 -320)"><path className="a" d="M45,0A45,45,0,1,1,0,45,45,45,0,0,1,45,0Z" transform="translate(331 320)"/><g transform="translate(360 349)"><path className="b" d="M16,0A16,16,0,1,0,32,16,16,16,0,0,0,16,0Zm0,4a11.989,11.989,0,0,1,11.266,8H4.734A11.989,11.989,0,0,1,16,4Zm0,14a2,2,0,1,1,2-2A2,2,0,0,1,16,18ZM4,16c5.465,0,9.891,5.266,9.984,11.8A12,12,0,0,1,4,16ZM18.016,27.8C18.109,21.266,22.535,16,28,16A12,12,0,0,1,18.016,27.8Z"/></g></g></svg>