<svg xmlns="http://www.w3.org/2000/svg" width="90" height="90" viewBox="0 0 90 90"><defs><style>.a{fill:#25a8d8;}.b{fill:#fff;}</style></defs><g transform="translate(-331 -148)"><circle className="a" cx="45" cy="45" r="45" transform="translate(331 148)"/><g transform="translate(349 43.588)"><g transform="translate(0 134.412)"><path className="b" d="M19.94,155.6a4.495,4.495,0,1,0,4.491,4.5A4.493,4.493,0,0,0,19.94,155.6Zm0,6.744a2.246,2.246,0,1,1,2.246-2.246A2.248,2.248,0,0,1,19.94,162.342Zm33.874-10.067v4.8a2.166,2.166,0,0,1-2.166,2.166H49.33a5.944,5.944,0,0,0-11.763,0H25.819a5.94,5.94,0,0,0-11.755,0h-2.9a2.166,2.166,0,0,1-2.166-2.166v-4.8h44.82ZM43.451,155.6a4.495,4.495,0,1,0,4.491,4.5A4.5,4.5,0,0,0,43.451,155.6Zm0,6.744A2.246,2.246,0,1,1,45.7,160.1,2.248,2.248,0,0,1,43.451,162.342Zm9.51-14.9-8.513-8.42a2.894,2.894,0,0,0-2.029-.838h-4.3v-1.61a2.163,2.163,0,0,0-2.166-2.166h-24.8a2.168,2.168,0,0,0-2.166,2.166v.339L.2,137.931l15.577,2.028L0,141.527l15.723,2.235L0,145.125l8.993,1.7v4.256h44.82V149.5A2.9,2.9,0,0,0,52.96,147.446Zm-3.711.282H41.01a.339.339,0,0,1-.339-.339v-6.362a.339.339,0,0,1,.339-.339h1.567a.366.366,0,0,1,.238.094l6.665,6.362A.339.339,0,0,1,49.249,147.727Z" transform="translate(0 -134.412)"/></g></g></g></svg>