<svg xmlns="http://www.w3.org/2000/svg" width="90" height="90" viewBox="0 0 90 90"><defs><style>.a{fill:#fdc10a;}.b{fill:#fff;}</style></defs><g transform="translate(-683 -320)"><circle className="a" cx="45" cy="45" r="45" transform="translate(683 320)"/><g transform="translate(711 347.881)"><g transform="translate(0 0.119)"><path className="b" d="M29.594,9.224a9.105,9.105,0,0,0-18.21,0c0,7.2,9.1,17.867,9.1,17.867S29.594,16.392,29.594,9.224ZM16,8.68a4.491,4.491,0,1,1,4.491,4.491A4.491,4.491,0,0,1,16,8.68Z" transform="translate(-3.11 -0.119)"/><circle className="b" cx="2.208" cy="2.208" r="2.208" transform="translate(15.171 6.353)"/><path className="b" d="M22.527,32.87c-.742,1.073-1.438,2.007-2.018,2.757,5.753.346,9.524,1.588,10.927,2.512-1.643,1.084-6.526,2.607-14.055,2.607S4.968,39.222,3.325,38.139c1.4-.924,5.171-2.165,10.918-2.511-.581-.75-1.278-1.683-2.021-2.756C5.142,33.568,0,35.663,0,38.138c0,3.045,7.782,5.515,17.38,5.515s17.38-2.468,17.38-5.515C34.761,35.662,29.613,33.566,22.527,32.87Z" transform="translate(0 -9.066)"/></g></g></g></svg>