<svg xmlns="http://www.w3.org/2000/svg" width="90" height="90" viewBox="0 0 90 90"><defs><style>.a{fill:#f86c6a;}.b{fill:#fff;}</style></defs><g transform="translate(-1035 -148)"><circle className="a" cx="45" cy="45" r="45" transform="translate(1035 148)"/><g transform="translate(1058 66.796)"><g transform="translate(0 112.204)"><path className="b" d="M456.583,395.756a3.7,3.7,0,1,0,3.7,3.7A3.708,3.708,0,0,0,456.583,395.756Zm0,4.792a1.089,1.089,0,1,1,1.089-1.089A1.09,1.09,0,0,1,456.583,400.548Z" transform="translate(-420.64 -375.57)"/><path className="b" d="M405.07,179.518h-6.4a.871.871,0,0,0-.871.871V197.38a.871.871,0,0,0,.871.871h.924a.868.868,0,0,0,.869-.738,5.02,5.02,0,0,1,9.92,0,.868.868,0,0,0,.869.738h.923a.872.872,0,0,0,.871-.871v-8.5a.87.87,0,0,0-.2-.559l-7.108-8.5A.872.872,0,0,0,405.07,179.518Zm-5.527,6.971v-4.357a.871.871,0,0,1,.871-.871h3.838a.872.872,0,0,1,.669.314l3.63,4.357a.871.871,0,0,1-.67,1.429h-7.468A.871.871,0,0,1,399.543,186.489Z" transform="translate(-369.481 -174.726)"/><path className="b" d="M.871,135.73H3.1a.868.868,0,0,0,.869-.738,4.8,4.8,0,0,1,4.96-4.245,4.8,4.8,0,0,1,4.96,4.245.868.868,0,0,0,.869.738H25.7a.872.872,0,0,0,.871-.871V113.075a.872.872,0,0,0-.871-.871H.871a.871.871,0,0,0-.871.871v21.784A.871.871,0,0,0,.871,135.73Z" transform="translate(0 -112.204)"/><path className="b" d="M77.143,395.756a3.7,3.7,0,1,0,3.7,3.7A3.708,3.708,0,0,0,77.143,395.756Zm0,4.792a1.089,1.089,0,1,1,1.089-1.089A1.09,1.09,0,0,1,77.143,400.548Z" transform="translate(-68.212 -375.57)"/></g></g></g></svg>