<svg xmlns="http://www.w3.org/2000/svg" width="90" height="90" viewBox="0 0 90 90"><defs><style>.a{fill:#63c2de;}.b{fill:#fff;}</style></defs><g transform="translate(-331 -320)"><path className="a" d="M45,0A45,45,0,1,1,0,45,45,45,0,0,1,45,0Z" transform="translate(331 320)"/><g transform="translate(342.186 238.507)"><path className="b" d="M47.01,333.552a9.882,9.882,0,0,0-8.483-6.664,6.474,6.474,0,0,1-4.713,2.248,6.472,6.472,0,0,1-4.712-2.248,9.882,9.882,0,0,0-8.485,6.665l-.7,2.069a1.949,1.949,0,0,0,1.84,2.576H45.87a1.948,1.948,0,0,0,1.84-2.576Z" transform="translate(0 -198.064)"/><path className="b" d="M120.842,119.714c0,4.64,2.825,9.62,6.307,9.62s6.309-4.979,6.309-9.62C133.458,110.1,120.842,110.076,120.842,119.714Z" transform="translate(-93.336 0)"/></g></g></svg>