<svg xmlns="http://www.w3.org/2000/svg" width="90" height="90" viewBox="0 0 90 90"><defs><style>.a{fill:#e38300;}.b{fill:#fff;}</style></defs><g transform="translate(-1035 -320)"><circle className="a" cx="45" cy="45" r="45" transform="translate(1035 320)"/><g transform="translate(1066 351)"><path className="b" d="M452.829,144.789l-.829.829v14.44a1.659,1.659,0,0,0,1.658,1.658,1.612,1.612,0,0,0,1.659-1.6V147.332Z" transform="translate(-427.317 -137.089)"/><path className="b" d="M0,3.336V25.5L2.543,28,4.2,26.316,5.86,28l1.658-1.684L9.177,28l1.658-1.684L12.494,28l1.658-1.684L15.811,28,18.3,25.5V1.641A3.217,3.217,0,0,1,18.76,0H3.372A3.4,3.4,0,0,0,0,3.336ZM14.982,21.383H3.372V19.742H14.982Zm0-3.281H3.372V16.461H14.982ZM9.168,10.139a2.451,2.451,0,0,1-.82-4.773V3.336h1.658V5.371a2.459,2.459,0,0,1,1.65,2.307H10a.829.829,0,1,0-.829.82,2.452,2.452,0,0,1,.838,4.768V14.82H8.348V13.272A2.459,2.459,0,0,1,6.68,10.959H8.339a.829.829,0,1,0,.829-.82Z" transform="translate(0 0)"/><path className="b" d="M364.317,8.047V1.638a1.659,1.659,0,0,0-3.317,0v22.99h3.778a3.209,3.209,0,0,1-.461-1.638Z" transform="translate(-341.291)"/></g></g></svg>