<svg xmlns="http://www.w3.org/2000/svg" width="90" height="90" viewBox="0 0 90 90"><defs><style>.a{fill:#fdc10a;}.b{fill:#fff;}</style></defs><g transform="translate(-683 -320)"><circle className="a" cx="45" cy="45" r="45" transform="translate(683 320)"/><g transform="translate(714 333.729)"><g transform="translate(0 18.271)"><path className="b" d="M43.039,146.177H19.35a1.093,1.093,0,0,0-1.077,1.079v16.188a1.093,1.093,0,0,0,1.077,1.079H43.039a1.093,1.093,0,0,0,1.077-1.079V147.256a1.093,1.093,0,0,0-1.077-1.079ZM34.1,151.253a1.033,1.033,0,0,1-.757.32H29.041a1.079,1.079,0,0,1,0-2.159h4.308a1.074,1.074,0,0,1,.757,1.838Z" transform="translate(-17.193 -138.682)"/><path className="b" d="M27.682,18.591a1.034,1.034,0,0,0-.757-.32H1.077a1.034,1.034,0,0,0-.757.32A1.038,1.038,0,0,0,0,19.35v4.317a1.038,1.038,0,0,0,.32.759,1.034,1.034,0,0,0,.757.32H26.925A1.093,1.093,0,0,0,28,23.667V19.35A1.038,1.038,0,0,0,27.682,18.591Z" transform="translate(0 -18.271)"/></g></g></g></svg>