<svg xmlns="http://www.w3.org/2000/svg" width="90" height="90" viewBox="0 0 90 90"><defs><style>.a{fill:#25a8d8;}.b{fill:#fff;}</style></defs><g transform="translate(-331 -148)"><circle className="a" cx="45" cy="45" r="45" transform="translate(331 148)"/><g transform="translate(362 179)"><path className="b" d="M27,7H22V1a1,1,0,0,0-1-1H1A1,1,0,0,0,0,1V24a4,4,0,0,0,4,4H24a4,4,0,0,0,4-4V8A1,1,0,0,0,27,7ZM8,5h6a1,1,0,1,1,0,2H8A1,1,0,1,1,8,5Zm9,19H5a1,1,0,0,1,0-2H17a1,1,0,0,1,0,2Zm0-4H5a1,1,0,1,1,0-2H17a1,1,0,0,1,0,2Zm0-4H5a1,1,0,1,1,0-2H17a1,1,0,0,1,0,2Zm0-4H5a1,1,0,0,1,0-2H17a1,1,0,0,1,0,2Zm9,12a2,2,0,1,1-4,0V9h4V24Z"/></g></g></svg>