<svg xmlns="http://www.w3.org/2000/svg" width="19.319" height="20.801" viewBox="0 0 19.319 20.801"><defs><style>.a{fill:#00539f;}</style></defs><g transform="translate(-12.885)"><g transform="translate(12.885)"><g transform="translate(0)"><path class="a" d="M30.767,2.517H29.186V1.437A1.437,1.437,0,0,0,27.748,0h-.057a1.437,1.437,0,0,0-1.437,1.437V2.517H18.836V1.437A1.437,1.437,0,0,0,17.4,0h-.057A1.437,1.437,0,0,0,15.9,1.437V2.517H14.322a1.437,1.437,0,0,0-1.437,1.437V19.364A1.437,1.437,0,0,0,14.322,20.8H30.767A1.437,1.437,0,0,0,32.2,19.364V3.954A1.437,1.437,0,0,0,30.767,2.517ZM29.789,18.53H15.3V6.858H29.789Z" transform="translate(-12.885)"/><path class="a" d="M85.366,162.6h2.5a.23.23,0,0,0,.23-.23v-2.5a.23.23,0,0,0-.23-.23h-2.5a.23.23,0,0,0-.23.23v2.5A.23.23,0,0,0,85.366,162.6Z" transform="translate(-80.982 -150.457)"/><path class="a" d="M155.366,162.6h2.5a.23.23,0,0,0,.23-.23v-2.5a.23.23,0,0,0-.23-.23h-2.5a.23.23,0,0,0-.23.23v2.5A.23.23,0,0,0,155.366,162.6Z" transform="translate(-146.957 -150.457)"/><path class="a" d="M225.366,162.6h2.5a.23.23,0,0,0,.23-.23v-2.5a.23.23,0,0,0-.23-.23h-2.5a.23.23,0,0,0-.23.23v2.5A.23.23,0,0,0,225.366,162.6Z" transform="translate(-212.932 -150.457)"/><path class="a" d="M85.366,232.6h2.5a.23.23,0,0,0,.23-.23v-2.5a.23.23,0,0,0-.23-.23h-2.5a.23.23,0,0,0-.23.23v2.5A.23.23,0,0,0,85.366,232.6Z" transform="translate(-80.982 -216.432)"/><path class="a" d="M155.366,232.6h2.5a.23.23,0,0,0,.23-.23v-2.5a.23.23,0,0,0-.23-.23h-2.5a.23.23,0,0,0-.23.23v2.5A.23.23,0,0,0,155.366,232.6Z" transform="translate(-146.957 -216.432)"/><path class="a" d="M225.366,232.6h2.5a.23.23,0,0,0,.23-.23v-2.5a.23.23,0,0,0-.23-.23h-2.5a.23.23,0,0,0-.23.23v2.5A.23.23,0,0,0,225.366,232.6Z" transform="translate(-212.932 -216.432)"/></g></g></g></svg>