<svg xmlns="http://www.w3.org/2000/svg" width="256" height="277.997" viewBox="0 0 256 277.997"><defs><style>.a{fill:#00214a;}.b{fill:#0066e3;}.b,.c,.d,.e,.f{fill-rule:evenodd;}.c,.g{fill:#00387d;}.d{fill:#77b0f2;}.e,.j{fill:#fff;}.f{fill:#00234d;}.h{fill:#e61515;}.i{fill:#b4332b;}</style></defs><g transform="translate(-556 -163.42)"><g transform="translate(537.637 113.209)"><path class="a" d="M22.877,56.8a.984.984,0,0,1,.264-1.409,1.143,1.143,0,0,1,1.541.264l60.767,84.909L54.837,68.024a.943.943,0,0,1,.6-1.338,1.2,1.2,0,0,1,1.47.608l33.359,79.089,33.694-78.9a1.153,1.153,0,0,1,1.409-.527,1.024,1.024,0,0,1,.669,1.338L95.213,140.37l60.645-84.716a1.13,1.13,0,0,1,1.531-.264.985.985,0,0,1,.274,1.409L91.2,149.658v.071h0l-.061.061h0v.071h-.071v.071h-.061l-.071.061h0c-.061.071-.132.071-.2.132h-.193v.071h-.477L90,150.125h-.2v-.061h-.132v-.071H89.6v-.061h-.132v-.071h-.071v-.071h0l-.061-.061Z" transform="translate(39.552 45.63)"/><path class="b" d="M90.28,50.211a69.991,69.991,0,0,1,67.591,51.742,52.806,52.806,0,0,0-32.558,13.11,53.174,53.174,0,0,0-70.065,0,52.806,52.806,0,0,0-32.558-13.11A70,70,0,0,1,90.28,50.211Z" transform="translate(39.538)"/><path class="c" d="M96.476,114.79l-.274.274a53.174,53.174,0,0,0-70.065,0l-.264-.274c1.4-36.168,16.649-64.579,35.3-64.579s33.9,28.411,35.306,64.579Z" transform="translate(68.648)"/><path class="d" d="M67.169,169.956c29.151,4.411,30.348-76.615,10.565-62.176-16.517,12.036-9.967-12.634-15.118-29.75-5.881-19.721-37.506-24.071-27,8.426,4.208,13.171,12.634,22.662,11.762,29.618-.872,6.55-26.809-.406-8.355,23.666,7.017,9.1,13.77,28.016,28.148,30.216Z" transform="translate(128.373 113.517)"/><path class="e" d="M60.554,162.726a12.427,12.427,0,0,0,1.47-.264c-.6-6.094-1.409-12.178-2.474-18.393v-.061c-.466-2.677-.933-5.354-1.47-8.031a131.8,131.8,0,0,0,8.091-14.368,111.764,111.764,0,0,0,6.145-16.183.714.714,0,0,0-.466-.933.8.8,0,0,0-1,.527A102.828,102.828,0,0,1,64.762,121a125.193,125.193,0,0,1-7.148,12.837c-.406-2.2-.872-4.34-1.409-6.55A376.043,376.043,0,0,0,35.215,63.905a.753.753,0,0,0-1-.4.718.718,0,0,0-.406,1,373.9,373.9,0,0,1,20.928,63.109q1.612,6.92,2.809,13.638a111.15,111.15,0,0,0-9.562-10.555,70.475,70.475,0,0,0-13.3-10.373.686.686,0,0,0-1,.2.761.761,0,0,0,.274,1.075,72.923,72.923,0,0,1,12.969,10.16,108.609,108.609,0,0,1,11.164,12.7c1,6.145,1.866,12.228,2.474,18.251Z" transform="translate(138.933 120.818)"/><path class="f" d="M142.928,74.271c68.787,0,124.555,4.684,124.555,10.494,0,5.749-55.768,10.5-124.555,10.5S18.363,90.515,18.363,84.766c0-5.81,55.768-10.494,124.565-10.494Z" transform="translate(0 219.899)"/><path class="b" d="M54.942,182.531c-35.032-2.21-16.051-96.874,3.407-75.013,16.183,18.109,14.773-12.239,25-30.9C95.186,55.167,133.1,58.037,112.768,93.2c-8.223,14.317-20.452,23.27-21.192,31.625-.669,7.828,31.362,6.287,3.813,29.618-10.495,8.832-23.128,29.222-40.447,28.087Z" transform="translate(155.709 117.327)"/><path class="e" d="M38.387,173.086a11.436,11.436,0,0,1-1.673-.74c2.2-6.885,4.745-13.77,7.483-20.725,0-.061,0-.061.071-.132,1.207-2.94,2.4-5.952,3.742-8.953a135.4,135.4,0,0,1-5.82-18.718,126.35,126.35,0,0,1-3.133-20.462.905.905,0,0,1,1.8-.132,121.919,121.919,0,0,0,3.072,20.188,143.071,143.071,0,0,0,5.08,16.781c1.065-2.413,2.21-4.877,3.275-7.29A444.783,444.783,0,0,1,92.735,64.379a.89.89,0,0,1,1.278-.2.942.942,0,0,1,.264,1.267A433.687,433.687,0,0,0,53.961,133.7c-2.4,5.08-4.614,10.1-6.682,15.179a126.739,126.739,0,0,1,13.77-9.957A89.571,89.571,0,0,1,79.1,130.165a1.048,1.048,0,0,1,1.207.6A.961.961,0,0,1,79.7,131.9a86.351,86.351,0,0,0-17.643,8.558A135.138,135.138,0,0,0,45.8,152.431q-4.107,10.327-7.412,20.654Z" transform="translate(167.721 125.9)"/><path class="d" d="M40.374,146.861c-21.8,3.275-22.662-57.37-7.889-46.541,12.37,9.034,7.483-9.42,11.3-22.256C48.191,63.29,71.867,60.015,64.04,84.35c-3.143,9.886-9.491,16.974-8.821,22.2.6,4.877,20.056-.274,6.287,17.714-5.283,6.824-10.3,20.989-21.131,22.6Z" transform="translate(37.965 149.053)"/><path class="e" d="M32.023,141.447c-.406-.061-.811-.132-1.146-.193.477-4.553,1.075-9.1,1.876-13.78v-.061c.335-2.008.669-4.015,1.075-6.023a88.142,88.142,0,0,1-6.023-10.7,79.517,79.517,0,0,1-4.674-12.167.594.594,0,0,1,.4-.669.623.623,0,0,1,.74.406,77.117,77.117,0,0,0,4.543,11.965,92.2,92.2,0,0,0,5.354,9.562c.324-1.6.659-3.214,1.065-4.877A281.218,281.218,0,0,1,50.944,67.438a.611.611,0,0,1,.8-.264.56.56,0,0,1,.264.73A282.928,282.928,0,0,0,36.3,115.175c-.74,3.407-1.48,6.814-2.079,10.231a89.458,89.458,0,0,1,7.159-7.96,55.372,55.372,0,0,1,9.957-7.757.587.587,0,0,1,.6,1,53.34,53.34,0,0,0-9.754,7.554,83.355,83.355,0,0,0-8.355,9.562c-.811,4.543-1.409,9.156-1.8,13.638Z" transform="translate(43.446 154.528)"/><path class="b" d="M66.136,156.282c26.272-1.673,12.036-72.539-2.545-56.224-12.1,13.638-11.032-9.1-18.718-23.068C36.052,60.939,7.63,63.078,22.88,89.421c6.145,10.7,15.311,17.389,15.838,23.6.537,5.881-23.463,4.745-2.809,22.2,7.828,6.621,17.258,21.861,30.226,21.06Z" transform="translate(0.907 151.932)"/><path class="e" d="M61.27,149.214c.466-.2.872-.335,1.267-.537-1.673-5.141-3.539-10.363-5.617-15.514v-.132c-.933-2.2-1.866-4.482-2.809-6.682a108.927,108.927,0,0,0,4.35-14.043A103.686,103.686,0,0,0,60.8,96.995a.675.675,0,0,0-.669-.669.584.584,0,0,0-.669.608,98.624,98.624,0,0,1-2.342,15.037,97.018,97.018,0,0,1-3.812,12.573c-.8-1.8-1.6-3.61-2.474-5.415A325.99,325.99,0,0,0,20.549,67.844a.649.649,0,0,0-.933-.193.716.716,0,0,0-.132.933A326.037,326.037,0,0,1,49.64,119.728c1.734,3.812,3.407,7.554,5.009,11.367a97.28,97.28,0,0,0-10.363-7.483,68.109,68.109,0,0,0-13.506-6.56.733.733,0,0,0-.862.477.68.68,0,0,0,.4.862,63.523,63.523,0,0,1,13.3,6.358,106.457,106.457,0,0,1,12.107,9.024c2.068,5.151,3.944,10.292,5.546,15.443Z" transform="translate(9.18 158.33)"/><path class="b" d="M25.254,84.186,108.76,63.26l19.388,77.22L44.71,161.473Z" transform="translate(62.979 119.261)"/><rect class="g" width="20.334" height="79.617" transform="translate(120.132 195.489) rotate(-14.083)"/><path class="f" d="M50.748,76.942c-12.036,0-21.861,1.531-21.861,3.478S38.712,83.9,50.748,83.9c12.107,0,21.932-1.541,21.932-3.478s-9.825-3.478-21.932-3.478Z" transform="translate(96.185 244.311)"/><path class="c" d="M63.921,138.488c20-1.207,9.156-55.159-1.937-42.728-9.156,10.363-8.355-6.946-14.246-17.511-6.682-12.239-28.279-10.636-16.71,9.43,4.684,8.152,11.63,13.232,12.107,17.977.324,4.482-17.856,3.549-2.21,16.852,5.952,5.08,13.171,16.649,23,15.98Z" transform="translate(85.152 185.371)"/><path class="e" d="M60.254,133.141l1-.406c-1.267-3.944-2.738-7.889-4.279-11.833a.063.063,0,0,1-.061-.071c-.669-1.663-1.409-3.407-2.139-5.08a82.871,82.871,0,0,0,3.336-10.7,80.672,80.672,0,0,0,1.8-11.63.525.525,0,0,0-.527-.537.517.517,0,0,0-.537.466,70.487,70.487,0,0,1-1.744,11.508,91.84,91.84,0,0,1-2.87,9.552c-.6-1.4-1.267-2.8-1.876-4.137A251.371,251.371,0,0,0,29.3,71.229a.584.584,0,0,0-.73-.132.6.6,0,0,0-.132.73,250.465,250.465,0,0,1,23,38.845c1.338,2.94,2.606,5.82,3.813,8.69a80.382,80.382,0,0,0-7.889-5.678,47.4,47.4,0,0,0-10.3-4.948.5.5,0,0,0-.669.264.556.556,0,0,0,.335.669,48.573,48.573,0,0,1,10.1,4.887,78.474,78.474,0,0,1,9.227,6.814c1.541,3.944,2.94,7.828,4.208,11.772Z" transform="translate(91.424 190.251)"/><path class="b" d="M38.385,122.081c-14.51-.933-6.621-40.183,1.4-31.149,6.753,7.554,6.155-5.09,10.434-12.776C55.1,69.264,70.812,70.4,62.386,85.041c-3.407,5.891-8.487,9.633-8.761,13.04-.335,3.275,12.969,2.606,1.541,12.3-4.35,3.681-9.562,12.107-16.781,11.7Z" transform="translate(109.085 203.846)"/><path class="e" d="M31.514,118.169c-.264-.071-.466-.2-.669-.274.872-2.87,1.947-5.749,3.082-8.619v-.071c.527-1.207,1.065-2.474,1.6-3.671a52.492,52.492,0,0,1-2.4-7.828,48.375,48.375,0,0,1-1.338-8.426.366.366,0,0,1,.335-.4c.264-.071.4.132.4.335a48.69,48.69,0,0,0,1.338,8.355,61.131,61.131,0,0,0,2.068,6.956l1.409-3.011A176.2,176.2,0,0,1,54.115,73.1a.3.3,0,0,1,.466-.132.431.431,0,0,1,.132.537A178.157,178.157,0,0,0,38,101.854c-1,2.069-1.937,4.208-2.809,6.287a47.016,47.016,0,0,1,5.749-4.147,36.29,36.29,0,0,1,7.483-3.61.355.355,0,0,1,.477.193.518.518,0,0,1-.2.537,33.892,33.892,0,0,0-7.351,3.549,49.956,49.956,0,0,0-6.753,4.948c-1.146,2.87-2.139,5.749-3.082,8.558Z" transform="translate(114.081 207.363)"/></g><g transform="translate(0 -0.344)"><path class="h" d="M40,80A40,40,0,1,1,80,40,40.046,40.046,0,0,1,40,80Z" transform="translate(696 244.344)"/><path class="i" d="M58,78.209A39.9,39.9,0,0,1,26.809,13.884,39.92,39.92,0,0,0,39.548,91.507,39.347,39.347,0,0,0,70.743,76.046,39,39,0,0,1,58,78.209Z" transform="translate(696 232.837)"/></g><g transform="translate(-26.933 -5.433)"><rect class="j" width="46.799" height="5.105" rx="2.553" transform="translate(744.933 304.525) rotate(-45)"/><rect class="j" width="46.799" height="5.105" rx="2.553" transform="translate(748.543 271.433) rotate(45)"/></g></g></svg>