<svg xmlns="http://www.w3.org/2000/svg" width="90" height="90" viewBox="0 0 90 90"><defs><style>.a{fill:#25a8d8;}.b{fill:#fff;}</style></defs><g transform="translate(-331 -148)"><circle className="a" cx="45" cy="45" r="45" transform="translate(331 148)"/><g transform="translate(360 159.729)"><g transform="translate(0 18.271)"><path className="b" d="M46.707,146.177h-27.2a1.255,1.255,0,0,0-1.236,1.239v18.59a1.255,1.255,0,0,0,1.236,1.24h27.2a1.255,1.255,0,0,0,1.236-1.24v-18.59a1.255,1.255,0,0,0-1.236-1.239Zm-10.257,5.829a1.186,1.186,0,0,1-.869.368H30.635a1.24,1.24,0,0,1,0-2.479h4.945a1.233,1.233,0,0,1,.869,2.111Z" transform="translate(-17.034 -137.57)"/><path className="b" d="M31.782,18.639a1.187,1.187,0,0,0-.869-.368H1.236a1.187,1.187,0,0,0-.869.368A1.192,1.192,0,0,0,0,19.51v4.957a1.192,1.192,0,0,0,.367.871,1.187,1.187,0,0,0,.869.368H30.912a1.255,1.255,0,0,0,1.237-1.239V19.51A1.192,1.192,0,0,0,31.782,18.639Z" transform="translate(0 -18.271)"/></g></g></g></svg>