<svg xmlns="http://www.w3.org/2000/svg" width="90" height="90" viewBox="0 0 90 90"><defs><style>.a{fill:#4dbd74;}.b{fill:#fff;}</style></defs><g transform="translate(-683 -148)"><circle className="a" cx="45" cy="45" r="45" transform="translate(683 148)"/><g transform="translate(706 77.305)"><path className="b" d="M20.844,107.257,18.232,113.6a.623.623,0,0,1-.521.383L4.349,115.158a.623.623,0,0,0-.568.636l.272,10.488a.623.623,0,0,0,.494.593l15.73,3.309a5.6,5.6,0,0,0,1.166.12v-22.93C21.444,106.51,21.174,106.456,20.844,107.257Zm-1.829,19.559-5.905-.951v-3.1h5.905Zm-2.582-14.34L.686,114.068a.623.623,0,0,1-.627-.884l4.193-8.963a.623.623,0,0,1,.452-.349l17.3-3.178L16.94,112.11A.623.623,0,0,1,16.433,112.477Zm23.351,2.682-13.361-1.174a.623.623,0,0,1-.521-.383l-2.612-6.344c-.33-.8-.6-.747-.6.119v22.929a5.6,5.6,0,0,0,1.166-.12l15.73-3.309a.623.623,0,0,0,.494-.593l.272-10.488A.623.623,0,0,0,39.784,115.158Zm-5.5,5.6-.738.02-.015,4.644a.51.51,0,0,1-.467.437l-1.209.174c-.276.04-.5-.1-.5-.317l.011-4.878-.844.023c-.41.011-.67-.318-.461-.59l2.007-2.616a.559.559,0,0,1,.84.036l1.762,2.511C34.837,120.445,34.625,120.751,34.285,120.761Zm9.161-6.693L27.7,112.477a.623.623,0,0,1-.507-.367l-5.067-11.415,17.3,3.178a.623.623,0,0,1,.452.349l4.193,8.963A.623.623,0,0,1,43.446,114.068Z" transform="translate(0)"/></g></g></svg>